{
  "accessors": [
    {
      "bufferView": 2,
      "componentType": 5126,
      "count": 16562,
      "max": [
        3.000664710998535,
        3.0018324851989746,
        0.7893486618995667
      ],
      "min": [
        -3.000664710998535,
        -3.0018248558044434,
        -2.8593592643737793
      ],
      "type": "VEC3"
    },
    {
      "bufferView": 2,
      "byteOffset": 198744,
      "componentType": 5126,
      "count": 16562,
      "max": [
        1.0,
        1.0,
        1.0
      ],
      "min": [
        -1.0,
        -1.0,
        -1.0
      ],
      "type": "VEC3"
    },
    {
      "bufferView": 1,
      "componentType": 5126,
      "count": 16562,
      "max": [
        0.9999446272850037,
        1.0000001192092896
      ],
      "min": [
        -4.9012382987712044e-06,
        0.0
      ],
      "type": "VEC2"
    },
    {
      "bufferView": 1,
      "byteOffset": 132496,
      "componentType": 5126,
      "count": 16562,
      "max": [
        0.9999446272850037,
        1.0000001192092896
      ],
      "min": [
        -4.9012382987712044e-06,
        0.0
      ],
      "type": "VEC2"
    },
    {
      "bufferView": 0,
      "componentType": 5125,
      "count": 76308,
      "type": "SCALAR"
    },
    {
      "bufferView": 2,
      "byteOffset": 397488,
      "componentType": 5126,
      "count": 528,
      "max": [
        3.351985216140747,
        3.3519845008850098,
        1.939964771270752
      ],
      "min": [
        -3.351985216140747,
        -3.3519861698150635,
        -1.0570003986358643
      ],
      "type": "VEC3"
    },
    {
      "bufferView": 2,
      "byteOffset": 403824,
      "componentType": 5126,
      "count": 528,
      "max": [
        0.9908217787742615,
        0.9908219575881958,
        0.9999918937683105
      ],
      "min": [
        -0.9908219575881958,
        -0.9908219575881958,
        -0.9999918937683105
      ],
      "type": "VEC3"
    },
    {
      "bufferView": 1,
      "byteOffset": 264992,
      "componentType": 5126,
      "count": 528,
      "max": [
        0.999904990196228,
        0.9994730353355408
      ],
      "min": [
        0.0,
        0.0
      ],
      "type": "VEC2"
    },
    {
      "bufferView": 0,
      "byteOffset": 305232,
      "componentType": 5125,
      "count": 2880,
      "type": "SCALAR"
    },
    {
      "bufferView": 2,
      "byteOffset": 410160,
      "componentType": 5126,
      "count": 3609,
      "max": [
        3.007195234298706,
        3.0083653926849365,
        0.792148768901825
      ],
      "min": [
        -3.007195234298706,
        -3.0035645961761475,
        -2.8594448566436768
      ],
      "type": "VEC3"
    },
    {
      "bufferView": 2,
      "byteOffset": 453468,
      "componentType": 5126,
      "count": 3609,
      "max": [
        1.0,
        1.0,
        1.0
      ],
      "min": [
        -1.0,
        -1.0,
        -1.0
      ],
      "type": "VEC3"
    },
    {
      "bufferView": 1,
      "byteOffset": 269216,
      "componentType": 5126,
      "count": 3609,
      "max": [
        0.9999444484710693,
        1.0
      ],
      "min": [
        0.0,
        0.0
      ],
      "type": "VEC2"
    },
    {
      "bufferView": 1,
      "byteOffset": 298088,
      "componentType": 5126,
      "count": 3609,
      "max": [
        0.9989345669746399,
        1.0
      ],
      "min": [
        0.0,
        0.0
      ],
      "type": "VEC2"
    },
    {
      "bufferView": 1,
      "byteOffset": 326960,
      "componentType": 5126,
      "count": 3609,
      "max": [
        0.9999444484710693,
        1.0
      ],
      "min": [
        0.0,
        0.0
      ],
      "type": "VEC2"
    },
    {
      "bufferView": 0,
      "byteOffset": 316752,
      "componentType": 5125,
      "count": 13890,
      "type": "SCALAR"
    },
    {
      "bufferView": 2,
      "byteOffset": 496776,
      "componentType": 5126,
      "count": 2311,
      "max": [
        3.3255960941314697,
        3.3255953788757324,
        1.9293333292007446
      ],
      "min": [
        -3.3255958557128906,
        -3.325596809387207,
        -1.0463690757751465
      ],
      "type": "VEC3"
    },
    {
      "bufferView": 2,
      "byteOffset": 524508,
      "componentType": 5126,
      "count": 2311,
      "max": [
        1.0,
        1.0,
        0.9785301089286804
      ],
      "min": [
        -1.0,
        -1.0,
        -0.9785301685333252
      ],
      "type": "VEC3"
    },
    {
      "bufferView": 1,
      "byteOffset": 355832,
      "componentType": 5126,
      "count": 2311,
      "max": [
        0.9999051094055176,
        0.9994731545448303
      ],
      "min": [
        0.0,
        1.0927519156211929e-07
      ],
      "type": "VEC2"
    },
    {
      "bufferView": 0,
      "byteOffset": 372312,
      "componentType": 5125,
      "count": 11520,
      "type": "SCALAR"
    },
    {
      "bufferView": 2,
      "byteOffset": 552240,
      "componentType": 5126,
      "count": 288,
      "max": [
        6.061330318450928,
        -1.6919686794281006,
        8.079943656921387
      ],
      "min": [
        -6.061329364776611,
        -2.5942039489746094,
        -4.042716979980469
      ],
      "type": "VEC3"
    },
    {
      "bufferView": 2,
      "byteOffset": 555696,
      "componentType": 5126,
      "count": 288,
      "max": [
        0.9938375949859619,
        0.9930816292762756,
        0.9938308000564575
      ],
      "min": [
        -0.9938341379165649,
        -0.9785872101783752,
        -0.9938308000564575
      ],
      "type": "VEC3"
    },
    {
      "bufferView": 1,
      "byteOffset": 374320,
      "componentType": 5126,
      "count": 288,
      "max": [
        0.9983052015304565,
        0.9983053803443909
      ],
      "min": [
        0.0016943812370300293,
        0.0016945600509643555
      ],
      "type": "VEC2"
    },
    {
      "bufferView": 1,
      "byteOffset": 376624,
      "componentType": 5126,
      "count": 288,
      "max": [
        0.9983052015304565,
        0.9983053803443909
      ],
      "min": [
        0.0016943812370300293,
        0.0016945600509643555
      ],
      "type": "VEC2"
    },
    {
      "bufferView": 0,
      "byteOffset": 418392,
      "componentType": 5125,
      "count": 1716,
      "type": "SCALAR"
    }
  ],
  "asset": {
    "extras": {
      "author": "d2epetto (https://sketchfab.com/d2epetto)",
      "license": "CC-BY-4.0 (http://creativecommons.org/licenses/by/4.0/)",
      "source": "https://sketchfab.com/3d-models/spoon-sw388-lowhigh-poly-069b86d4b4a2492e92eb3349805479f9",
      "title": "Spoon SW388 (Low&High Poly)"
    },
    "generator": "Sketchfab-10.55.0",
    "version": "2.0"
  },
  "bufferViews": [
    {
      "buffer": 0,
      "byteLength": 425256,
      "name": "floatBufferViews",
      "target": 34963
    },
    {
      "buffer": 0,
      "byteLength": 378928,
      "byteOffset": 425256,
      "byteStride": 8,
      "name": "floatBufferViews",
      "target": 34962
    },
    {
      "buffer": 0,
      "byteLength": 559152,
      "byteOffset": 804184,
      "byteStride": 12,
      "name": "floatBufferViews",
      "target": 34962
    }
  ],
  "buffers": [
    {
      "byteLength": 1363336,
      "uri": "scene.bin"
    }
  ],
  "images": [
    {
      "uri": "textures/Spoon_baseColor.jpeg"
    },
    {
      "uri": "textures/Spoon_metallicRoughness.png"
    },
    {
      "uri": "textures/Stand_baseColor.jpeg"
    },
    {
      "uri": "textures/Stand_metallicRoughness.png"
    }
  ],
  "materials": [
    {
      "doubleSided": true,
      "name": "Spoon",
      "pbrMetallicRoughness": {
        "baseColorTexture": {
          "index": 0
        },
        "metallicFactor": 0.0,
        "metallicRoughnessTexture": {
          "index": 1
        },
        "roughnessFactor": 0.5261051829268293
      }
    },
    {
      "doubleSided": true,
      "name": "Tire",
      "pbrMetallicRoughness": {
        "baseColorFactor": [
          0.00395518,
          0.00395518,
          0.00395518,
          1.0
        ],
        "metallicFactor": 0.0,
        "roughnessFactor": 0.9994801875562908
      }
    },
    {
      "alphaMode": "BLEND",
      "doubleSided": true,
      "name": "Stand",
      "pbrMetallicRoughness": {
        "baseColorFactor": [
          0.0,
          0.0,
          0.0,
          0.0
        ],
        "baseColorTexture": {
          "index": 2
        },
        "metallicFactor": 0.0,
        "metallicRoughnessTexture": {
          "index": 3
        }
      }
    }
  ],
  "meshes": [
    {
      "name": "HighPolySpoon_Spoon_0",
      "primitives": [
        {
          "attributes": {
            "NORMAL": 1,
            "POSITION": 0,
            "TEXCOORD_0": 2,
            "TEXCOORD_1": 3
          },
          "indices": 4,
          "material": 0,
          "mode": 4
        }
      ]
    },
    {
      "name": "HighPolyTire_Tire_0",
      "primitives": [
        {
          "attributes": {
            "NORMAL": 6,
            "POSITION": 5,
            "TEXCOORD_0": 7
          },
          "indices": 8,
          "material": 1,
          "mode": 4
        }
      ]
    },
    {
      "name": "LowPolySpoon_Spoon_0",
      "primitives": [
        {
          "attributes": {
            "NORMAL": 10,
            "POSITION": 9,
            "TEXCOORD_0": 11,
            "TEXCOORD_1": 12,
            "TEXCOORD_2": 13
          },
          "indices": 14,
          "material": 0,
          "mode": 4
        }
      ]
    },
    {
      "name": "HighPolyTire.001_Tire_0",
      "primitives": [
        {
          "attributes": {
            "NORMAL": 16,
            "POSITION": 15,
            "TEXCOORD_0": 17
          },
          "indices": 18,
          "material": 1,
          "mode": 4
        }
      ]
    },
    {
      "name": "Stand_Stand_0",
      "primitives": [
        {
          "attributes": {
            "NORMAL": 20,
            "POSITION": 19,
            "TEXCOORD_0": 21,
            "TEXCOORD_1": 22
          },
          "indices": 23,
          "material": 2,
          "mode": 4
        }
      ]
    }
  ],
  "nodes": [
    {
      "children": [
        1
      ],
      "matrix": [
        1.0,
        0.0,
        0.0,
        0.0,
        0.0,
        2.220446049250313e-16,
        -1.0,
        0.0,
        0.0,
        1.0,
        2.220446049250313e-16,
        0.0,
        0.0,
        0.0,
        0.0,
        1.0
      ],
      "name": "Sketchfab_model"
    },
    {
      "children": [
        2
      ],
      "matrix": [
        1.0,
        0.0,
        0.0,
        0.0,
        0.0,
        0.0,
        1.0,
        0.0,
        0.0,
        -1.0,
        0.0,
        0.0,
        0.0,
        0.0,
        0.0,
        1.0
      ],
      "name": "2262a6d3f82749caaac54759ff5d1ef1.fbx"
    },
    {
      "children": [
        3,
        5,
        7,
        9,
        11
      ],
      "name": "RootNode"
    },
    {
      "children": [
        4
      ],
      "matrix": [
        42.35820007324219,
        0.0,
        0.0,
        0.0,
        0.0,
        42.358200073242145,
        1.85153573052882e-06,
        0.0,
        0.0,
        -1.85153573052882e-06,
        42.358200073242145,
        0.0,
        349.0010681152344,
        0.0,
        0.0,
        1.0
      ],
      "name": "HighPolySpoon"
    },
    {
      "mesh": 0,
      "name": "HighPolySpoon_Spoon_0"
    },
    {
      "children": [
        6
      ],
      "matrix": [
        1.014235690350953e-05,
        -52.09030532836816,
        1.9193170207356387e-13,
        0.0,
        52.090305328367464,
        1.014235690350953e-05,
        8.486588222985084e-06,
        0.0,
        -8.48658822298496e-06,
        -1.46046803424354e-12,
        52.090305328368444,
        0.0,
        0.0,
        0.0,
        -67.22527313232422,
        1.0
      ],
      "name": "HighPolyTire"
    },
    {
      "mesh": 1,
      "name": "HighPolyTire_Tire_0"
    },
    {
      "children": [
        8
      ],
      "matrix": [
        42.35820770263672,
        0.0,
        0.0,
        0.0,
        0.0,
        42.358207702636676,
        1.8515360640202468e-06,
        0.0,
        0.0,
        -1.8515360640202468e-06,
        42.358207702636676,
        0.0,
        0.0,
        0.0,
        0.0,
        1.0
      ],
      "name": "LowPolySpoon"
    },
    {
      "mesh": 2,
      "name": "LowPolySpoon_Spoon_0"
    },
    {
      "children": [
        10
      ],
      "matrix": [
        1.014235690350953e-05,
        -52.09030532836816,
        1.9193170207356387e-13,
        0.0,
        52.090305328367464,
        1.014235690350953e-05,
        8.486588222985084e-06,
        0.0,
        -8.48658822298496e-06,
        -1.46046803424354e-12,
        52.090305328368444,
        0.0,
        349.0010681152344,
        0.0,
        -67.22527313232422,
        1.0
      ],
      "name": "HighPolyTire.001"
    },
    {
      "mesh": 3,
      "name": "HighPolyTire.001_Tire_0"
    },
    {
      "children": [
        12
      ],
      "matrix": [
        100.0,
        0.0,
        0.0,
        0.0,
        0.0,
        99.9999999999999,
        4.371138828673792e-06,
        0.0,
        0.0,
        -4.371138828673792e-06,
        99.9999999999999,
        0.0,
        175.2022705078125,
        0.0,
        0.0,
        1.0
      ],
      "name": "Stand"
    },
    {
      "mesh": 4,
      "name": "Stand_Stand_0"
    }
  ],
  "samplers": [
    {
      "magFilter": 9729,
      "minFilter": 9987,
      "wrapS": 10497,
      "wrapT": 10497
    }
  ],
  "scene": 0,
  "scenes": [
    {
      "name": "Sketchfab_Scene",
      "nodes": [
        0
      ]
    }
  ],
  "textures": [
    {
      "sampler": 0,
      "source": 0
    },
    {
      "sampler": 0,
      "source": 1
    },
    {
      "sampler": 0,
      "source": 2
    },
    {
      "sampler": 0,
      "source": 3
    }
  ]
}
