<svg id="_157b87cc-8b9b-4d5e-a986-822dc24578af" data-name="157b87cc-8b9b-4d5e-a986-822dc24578af" xmlns="http://www.w3.org/2000/svg" xmlns:xlink="http://www.w3.org/1999/xlink" viewBox="0 0 654.92266 383.30964"><defs><style>.cls-1{fill:#535f89;}.cls-2{opacity:0.1;}.cls-12,.cls-2{isolation:isolate;}.cls-3{fill:#dce2ed;}.cls-4{fill:#dce0ed;}.cls-5{fill:#f0f0f4;}.cls-6{fill:#636780;}.cls-7{fill:#fff;}.cls-8{fill:url(#Degradado_sin_nombre);}.cls-9{fill:#f899a5;}.cls-10{fill:#f3b4b4;}.cls-11{fill:#bdd3e8;}.cls-12{opacity:0.05;}.cls-13{fill:#4c4981;}.cls-14{fill:#ceddf9;}.cls-15{fill:#6c63ff;}</style><linearGradient id="Degradado_sin_nombre" x1="315.29281" y1="27.33481" x2="315.29281" y2="139.93525" gradientTransform="matrix(1, 0, 0, -1, -48.43, 215.07)" gradientUnits="userSpaceOnUse"><stop offset="0" stop-color="gray" stop-opacity="0.25"/><stop offset="0.54" stop-color="gray" stop-opacity="0.12"/><stop offset="1" stop-color="gray" stop-opacity="0.1"/></linearGradient></defs><title>camioneta</title><path class="cls-1" d="M463.38143,223.05807a11.60868,11.60868,0,0,1-14.27408,0c-1.9934-13.18708,3.06617-39.10379,4.259-44.94685l.24817-1.17185h5.76408a4.01411,4.01411,0,0,1,.88861,1.34037C464.182,186.73137,463.38143,223.05807,463.38143,223.05807Z" transform="translate(-2 0)"/><path class="cls-2" d="M458.16975,171.626v5.32139h-2.4017V171.626a6.963,6.963,0,0,1,1.16884-.09631A7.843,7.843,0,0,1,458.16975,171.626Z" transform="translate(-2 0)"/><path class="cls-2" d="M460.2272,178.30384a6.79088,6.79088,0,0,1-3.29832.80262,6.512,6.512,0,0,1-3.5465-.94709l.24818-1.17184h5.748A4.01421,4.01421,0,0,1,460.2272,178.30384Z" transform="translate(-2 0)"/><ellipse class="cls-3" cx="454.92889" cy="175.31003" rx="4.8114" ry="2.86537"/><path class="cls-1" d="M635.25466,243.78977a7.6699,7.6699,0,0,1-9.43068,0c-1.321-8.71647,2.02546-25.86052,2.81-29.697.10408-.50565.16814-.80262.16814-.80262h3.77068a2.68157,2.68157,0,0,1,.59241.88286C635.77505,219.78336,635.25466,243.78977,635.25466,243.78977Z" transform="translate(-2 0)"/><path class="cls-2" d="M631.79621,209.7907v3.52352h-1.60112V209.7907a3.99486,3.99486,0,0,1,.80056-.06423A5.3433,5.3433,0,0,1,631.79621,209.7907Z" transform="translate(-2 0)"/><path class="cls-2" d="M633.1652,214.165a4.56125,4.56125,0,0,1-2.18553.51369,4.39474,4.39474,0,0,1-2.34565-.618c.10408-.50565.16814-.80262.16814-.80262h3.77068A2.681,2.681,0,0,1,633.1652,214.165Z" transform="translate(-2 0)"/><ellipse class="cls-3" cx="628.97963" cy="212.22267" rx="3.17822" ry="1.89418"/><path class="cls-2" d="M307.51949,255.85321a35.86275,35.86275,0,0,0-24.26511-3.04192c-14.00988,3.04192-35.473,1.42869-37.4264,1.09155" transform="translate(-2 0)"/><path class="cls-2" d="M262.69588,90.67353s-3.41041,53.92017,2.64987,64.55491Z" transform="translate(-2 0)"/><path class="cls-2" d="M250.111,155.22844s4.37107,50.501,7.39721,60.37329S250.111,155.22844,250.111,155.22844Z" transform="translate(-2 0)"/><path class="cls-2" d="M245.852,31.05472c-3.09818,1.13973-16.35553,28.09178-13.69768,36.07789S245.852,31.05472,245.852,31.05472Z" transform="translate(-2 0)"/><path class="cls-2" d="M279.45971,69.42711c-1.433.53667-7.60536,13.35727-6.40452,17.14713S279.45971,69.42711,279.45971,69.42711Z" transform="translate(-2 0)"/><path class="cls-2" d="M222.05921,93.61914c1.5371,15.65917,2.4017,25.90863,1.393,38.44564a148.62261,148.62261,0,0,0,.41628,29.23952" transform="translate(-2 0)"/><path class="cls-1" d="M174.55371,229.90441a14.47687,14.47687,0,0,1-17.81256,0c-2.48176-16.46179,3.82669-48.8155,5.31576-56.07118l.31223-1.46882h7.125a5.29,5.29,0,0,1,1.1128,1.66947C175.53841,184.56428,174.55371,229.90441,174.55371,229.90441Z" transform="translate(-2 0)"/><path class="cls-2" d="M168.02911,165.71873v6.64573H165.027v-6.65372a8.67345,8.67345,0,0,1,1.465-.11238A9.5854,9.5854,0,0,1,168.02911,165.71873Z" transform="translate(-2 0)"/><path class="cls-2" d="M170.60693,174.03388a8.50017,8.50017,0,0,1-4.11491.97119,8.19736,8.19736,0,0,1-4.43514-1.17184l.31223-1.46882h7.125A5.28971,5.28971,0,0,1,170.60693,174.03388Z" transform="translate(-2 0)"/><ellipse class="cls-3" cx="164.49202" cy="170.30167" rx="6.00424" ry="3.57168"/><path class="cls-2" d="M520.38966,149.52181a20.57516,20.57516,0,0,1,13.92183-1.74168c8.00564,1.74168,20.37438.80263,21.49514.62607" transform="translate(-2 0)"/><path class="cls-2" d="M546.1358,54.65184S548.08917,85.625,544.6147,91.725Z" transform="translate(-2 0)"/><path class="cls-2" d="M553.3569,91.725s-2.50577,29.00678-4.243,34.68133S553.3569,91.725,553.3569,91.725Z" transform="translate(-2 0)"/><path class="cls-2" d="M555.80663,20.412c1.77723.65816,9.39061,16.14075,7.86956,20.71569S555.80663,20.412,555.80663,20.412Z" transform="translate(-2 0)"/><path class="cls-2" d="M536.505,70.474c.80056.30477,4.3711,7.67247,3.65858,9.84568S536.505,70.474,536.505,70.474Z" transform="translate(-2 0)"/><path class="cls-2" d="M569.47227,56.34536c-.8806,8.99739-1.361,14.88062-.80056,22.08015a84.82131,84.82131,0,0,1-.24016,16.79087" transform="translate(-2 0)"/><path class="cls-2" d="M613.82687,6.17028a28.44749,28.44749,0,0,1,3.57-2.19546,16.15523,16.15523,0,0,1,3.68-1.43412,44.51968,44.51968,0,0,1,6.06-.53116A9.20364,9.20364,0,0,0,632.6669,0" transform="translate(-2 0)"/><path class="cls-2" d="M504.12857,36.90586a1.079,1.079,0,0,1,1.385.321c.34424.39328.52835.907.88862,1.29221a3.92793,3.92793,0,0,0,2.87405.88289" transform="translate(-2 0)"/><path d="M294.87857,18.10041c-13.14528,17.77-23.96891,70.04484-27.00306,85.80032l-22.89615-.907c1.441-13.55631,29.12455-68.29514,36.826-83.31219C285.92826,19.12776,290.33938,18.56592,294.87857,18.10041Z" transform="translate(-2 0)"/><rect class="cls-4" x="568.78517" y="76.62254" width="10.15115" height="11.83336"/><path class="cls-2" d="M580.93637,76.62253V80.472a9.347,9.347,0,0,1-2.20156.24515l-7.94158-.053V76.62253Z" transform="translate(-2 0)"/><path class="cls-4" d="M566.50216,46.47592h9.60678c4.68817.00512,8.90359,2.36416,10.65551,5.96307,2.802,5.71792,5.17963,14.80828-1.06476,23.85226a8.32854,8.32854,0,0,1-6.94088,3.31282l-12.23266-.08614Z" transform="translate(-2 0)"/><ellipse class="cls-5" cx="564.50217" cy="63.00025" rx="10.26324" ry="16.51769"/><rect class="cls-4" x="478.64161" y="76.76169" width="10.15115" height="10.35586"/><path class="cls-2" d="M490.79276,76.76169V80.0745a9.367,9.367,0,0,1-2.20957.24515L480.6416,80.26V76.78156Z" transform="translate(-2 0)"/><path class="cls-4" d="M476.3586,46.62169h9.60678c4.68724.00234,8.902,2.3628,10.6475,5.96306,2.81,5.71792,5.18764,14.80829-1.05675,23.85227a8.34742,8.34742,0,0,1-6.9489,3.31281l-12.22464-.09277Z" transform="translate(-2 0)"/><ellipse class="cls-5" cx="474.35861" cy="63.13938" rx="10.26324" ry="16.51769"/><path class="cls-4" d="M478.92037,52.65765s-3.78666.50355-1.8173,4.63794a24.7622,24.7622,0,0,1,2.26561,6.26122s3.78666,1.6299,3.63455-3.75674A7.89236,7.89236,0,0,0,478.92037,52.65765Z" transform="translate(-2 0)"/><ellipse class="cls-6" cx="92.34514" cy="268.68714" rx="59.87424" ry="65.79093"/><path class="cls-2" d="M116.777,206.99759c-31.3261,2.1109-56.14359,30.7003-56.14359,65.66253,0,28.18006,16.12337,52.21861,38.78735,61.5852,31.3341-2.1109,56.15161-30.7003,56.15161-65.66253C155.57232,240.40273,139.44094,216.36418,116.777,206.99759Z" transform="translate(-2 0)"/><ellipse class="cls-6" cx="560.94766" cy="124.88931" rx="48.59429" ry="63.52756"/><path class="cls-2" d="M549.37006,64.01843c-20.15821,7.7453-34.8726,32.10489-34.8726,60.95918,0,30.83673,16.81186,56.53672,39.0996,62.31561,20.1502-7.74533,34.8726-32.1049,34.8726-60.95918C588.46966,95.49728,571.6578,69.79732,549.37006,64.01843Z" transform="translate(-2 0)"/><path class="cls-7" d="M380.40288,111.325l.90464-23.05935s-4.51519-9.95251-9.02238-10.85144-14.88249-1.46879-14.88249-1.46879-8.11774,33.11618-2.70591,43.06872S380.40288,111.325,380.40288,111.325Z" transform="translate(-2 0)"/><path class="cls-7" d="M297.19221,108.83688s-2.794-31.97647,14.73039-32.55436c2.2576-.07223,4.51519-.12842,6.76478-.34512,12.14458-1.17986,45.27993-3.74022,41.30914,3.84457,0,0-7.89356,27.81086-2.48175,34.81773Z" transform="translate(-2 0)"/><path class="cls-7" d="M545.59142,168.12659l23.50456.68221s4.05887-43.41386,5.41183-46.80091,2.03342-19.67228-2.36168-22.04-19.10146-5.25717-19.10146-5.25717L542.205,119.45556l-.84058,22.38515Z" transform="translate(-2 0)"/><path class="cls-7" d="M488.75934,96.06713l-.10408-4.81573a2.78188,2.78188,0,0,1,2.71867-2.8433q.08972-.00191.17937.002c11.65622.48959,54.05414,2.52825,61.47535,6.32467,0,0-8.11774,60.53379.84859,74.94885l-3.04213,48.49448-103.84923-7.80146Z" transform="translate(-2 0)"/><path class="cls-2" d="M480.6416,83.08252c2.882-.23851,6.31647-.49029,10.15116-.74207v4.77708H480.6416Z" transform="translate(-2 0)"/><path class="cls-2" d="M580.93637,87.84635v.60293H570.79318V84.81843A49.48461,49.48461,0,0,1,580.93637,87.84635Z" transform="translate(-2 0)"/><path class="cls-8" d="M294.83054,96.324a.94728.94728,0,0,1,.38428-.602,1.34975,1.34975,0,0,1,.69648-.0642h0v.40935h0a15.67942,15.67942,0,0,0-1.449,1.48485C294.60638,97.14267,294.71046,96.73332,294.83054,96.324Zm36.7379-10.80329a1.24417,1.24417,0,0,0,0-.16855,35.58625,35.58625,0,0,1,1.75324-3.75626,36.56055,36.56055,0,0,0-1.75322,3.92481Zm5.47586-10.38594c-.8646,1.29221-1.91336,2.96168-2.94608,4.896a22.75953,22.75953,0,0,1,2.9461-4.896ZM194.00742,187.4537c4.07487.16054,7.46926.08828,7.46926.08828C200.74017,187.87912,197.46587,187.72662,194.00742,187.4537Zm7.47727.08025c.15211-.09631,1.65718-.97918,5.17164-.62607a14.22211,14.22211,0,0,0-5.17164.62612ZM338.22917,125.7963l1.489-25.68392s-.55239,13.11487-.36825,18.78937a18.50376,18.50376,0,0,1-1.12078,6.90253Z" transform="translate(-2 0)"/><path class="cls-9" d="M253.03306,174.981s-.4243,1.31631-.9847,2.98573c-.91266,2.7209-2.20155,6.421-2.64185,6.7661s-3.85072.56988-7.56535.80262a23.35222,23.35222,0,0,1-15.94723-5.08056s1.94536-1.40459,4.00282-3.03394,4.219-3.47536,4.65929-4.38233c.61643-1.24406,4.13893-3.387,6.26042-4.591.95268-.54578,1.60113-.89893,1.60113-.89893Z" transform="translate(-2 0)"/><path class="cls-10" d="M248.53389,186.322s-37.43441-1.72566-39.668-2.22328-2.68988-3.13025-2.68988-3.13025c-.74452-1.74971,3.20226-1.3725,3.20226-1.3725h0c.40028.06422,4.80338.80262,8.9503,1.33233h0c3.32234.42541,6.46856.71435,7.20509.40131h0c1.67317-.69828,5.01154-.40131,5.01154-.40131-1.89734-6.29258-7.64538-7.79348-10.10312-8.14664l.15211-.1525a12.57256,12.57256,0,0,1,2.13751-1.60524c7.62938.313,11.66424,10.8595,11.66424,10.8595h.064c.8646.27292,10.06311,3.13025,11.88839,3.39508h0C248.25369,185.57559,248.53389,186.322,248.53389,186.322Z" transform="translate(-2 0)"/><path class="cls-9" d="M228.96008,189.669c-.1441.47357-.80057.80262-1.87332.8909a12.137,12.137,0,0,1-1.74523,0h0a39.55757,39.55757,0,0,1-10.40734-2.34365c-.5764-.20065-1.12078-.3772-1.64916-.5297h-.064a22.62682,22.62682,0,0,0-3.89074-.80263c-3.39438-.35315-4.8434.52971-4.98752.62607h0s-3.28232.07226-7.20508-.08827h0a58.40781,58.40781,0,0,1-8.99035-.94709h0c-.4243-.08828-.80057-.19262-1.19284-.297a8.31422,8.31422,0,0,1-2.00942-.80262c-4.13092-2.48811,9.7829-4.16561,9.7829-4.16561a7.24559,7.24559,0,0,0,4.211-2.03865l.14409-.16053.35225-.35316h0a19.14475,19.14475,0,0,1,1.68918-1.31631l.51238-.34512c2.76994-1.87816,6.50058-3.88472,6.50058-3.88472a15.79366,15.79366,0,0,0,6.89285-3.94888,8.18979,8.18979,0,0,0,.96068-1.13971h0l7.69342-1.99049,5.29973,12.76171s.04.69025.08006,1.72566C229.15223,183.29613,229.30431,188.54531,228.96008,189.669Z" transform="translate(-2 0)"/><path class="cls-2" d="M227.08676,190.5599a12.137,12.137,0,0,1-1.74523,0h0a39.55757,39.55757,0,0,1-10.40734-2.34365c-.5764-.20065-1.12078-.37721-1.64916-.52971h-.064a22.62775,22.62775,0,0,0-3.89074-.80262c-3.39438-.35315-4.8434.52971-4.98752.62607h0s-3.28232.07226-7.20508-.08828h0a58.40656,58.40656,0,0,1-8.99035-.94708h0c-.4243-.08828-.80057-.19263-1.19284-.297a9.51212,9.51212,0,0,1,1.54509-.06422h0c.39227.04815,4.8434.59393,8.99035.93905h0c3.34635.2809,6.50058.4334,7.20508.08828h0c1.64115-.80263,4.98753-.62607,4.98753-.62607-2.16154-6.20426-8.00565-7.44836-10.44736-7.69717.048-.05619.10407-.10435.14409-.16054h0a13.22344,13.22344,0,0,1,2.04143-1.66946h.16012c7.53332.12041,11.96846,10.32974,11.96846,10.32974h.064c.87261.23274,10.1912,2.6968,12.00847,2.88144h0A4.57784,4.57784,0,0,1,227.08676,190.5599Z" transform="translate(-2 0)"/><path class="cls-10" d="M227.52708,191.515s-37.47443-.09631-39.724-.48959-2.826-3.01787-2.826-3.01787c-.80057-1.70959,3.11421-1.5009,3.11421-1.5009h0c.39226.04816,4.80338.59394,8.99035.94709h0c3.33836.27292,6.50058.42542,7.20508.08828h0c1.60113-.80262,4.98752-.62607,4.98752-.62607-2.16952-6.20425-8.00564-7.44836-10.44736-7.69717l.1441-.16053a13.68956,13.68956,0,0,1,2.06545-1.69353c7.63739,0,12.12855,10.33778,12.12855,10.33778h.064c.87261.22476,10.1912,2.68877,12.00847,2.87341h0C227.21485,190.77657,227.52708,191.515,227.52708,191.515Z" transform="translate(-2 0)"/><path class="cls-2" d="M253.03306,174.981s-.4243,1.31631-.9847,2.98573c-.22416-.1525-7.59735-5.07258-10.40734-8.29914a6.10894,6.10894,0,0,1-.8486-1.19589c.95268-.54578,1.60113-.89894,1.60113-.89894Z" transform="translate(-2 0)"/><path class="cls-11" d="M274.60028,158.70381l-1.32894,4.31008-12.729,6.95069s-3.44242,2.448-4.00282,3.60377a3.58787,3.58787,0,0,1-2.03344,1.60524,28.2821,28.2821,0,0,0-1.76125,2.456s-7.55734-5.02442-10.40734-8.29913c-.88063-1.01132-1.30493-1.86209-.90465-2.33561,1.66517-2.00656,11.65622-9.21409,11.65622-9.21409s6.1003-8.02623,6.3645-7.88176,3.33035-2.81721,5.13163-4.49467l1.23287-1.15577Z" transform="translate(-2 0)"/><path class="cls-11" d="M293.66172,147.48312v2.127s8.00565,7.6811,6.9489,13.94155,1.17683,14.06195,1.17683,14.06195l8.05367-.57786-1.21684-28.60547Z" transform="translate(-2 0)"/><path class="cls-12" d="M309.84112,177.03568l-8.05367.57787s-2.23359-7.79349-1.17683-14.062-6.9489-13.9415-6.9489-13.9415v-2.127l14.96256.94709.08006,1.86209Z" transform="translate(-2 0)"/><path class="cls-12" d="M265.24969,146.65644a67.35518,67.35518,0,0,0-7.061,7.68111c-2.834,3.78036-7.66141,9.21409-7.66141,9.21409l-5.77206,3.42721-2.4017,2.33561c-.88062-1.01131-1.30492-1.86209-.90464-2.33561,1.66516-2.00656,11.65622-9.21409,11.65622-9.21409s6.1003-8.02622,6.3645-7.88176,3.33035-2.81721,5.13162-4.49466Z" transform="translate(-2 0)"/><path class="cls-2" d="M229.04014,180.51908a7.79475,7.79475,0,0,0-.66446.64209s-.12008,3.77234-3.06615-5.08865-10.25523-6.734-10.25523-6.734a.13662.13662,0,0,1-.056-.16053c0-.24078.4243-.65816.96069-1.13971h0l7.69341-1.99049,5.29974,12.76171S229.00012,179.48367,229.04014,180.51908Z" transform="translate(-2 0)"/><path class="cls-11" d="M256.18729,130.11441l-4.48317.12041-3.06615,4.3743s-5.06756,5.43377-6.59664,6.79021-11.43207,10.69093-14.25806,15.53875c0,0-2.59382,1.30025-2.59382,2.60049s-4.94748,5.08062-4.94748,5.08062-5.18767,3.53954-4.48317,4.01311c0,0,7.30916-2.127,10.25523,6.734s3.06615,5.08061,3.06615,5.08061a6.87947,6.87947,0,0,1,1.76924-1.39655c.7045-.25685,4.05887-5.09663,5.09158-5.21705a5.08491,5.08491,0,0,0,2.09748-.94708l6.00423-5.90729,5.78008-3.42722s4.80339-5.43377,7.6534-9.21409a67.90933,67.90933,0,0,1,7.069-7.6811Z" transform="translate(-2 0)"/><path class="cls-2" d="M233.79549,158.7118s8.00565,3.8927,7.66141,4.71942S233.79549,158.7118,233.79549,158.7118Z" transform="translate(-2 0)"/><path class="cls-2" d="M240.12,157.76471s.62444,3.50746,3.8107,3.34692S240.12,157.76471,240.12,157.76471Z" transform="translate(-2 0)"/><path class="cls-2" d="M228.96008,167.6129s.47233,2.00656,3.4184,2.35971S228.96008,167.6129,228.96008,167.6129Z" transform="translate(-2 0)"/><path class="cls-2" d="M258.95724,158.7118s3.88274,1.60524,4.235,3.83656S258.95724,158.7118,258.95724,158.7118Z" transform="translate(-2 0)"/><path class="cls-2" d="M249.40651,166.97885c1.50506.65012,5.83612,5.522,5.748,6.05175S249.40651,166.97885,249.40651,166.97885Z" transform="translate(-2 0)"/><path class="cls-2" d="M256.29936,163.51955a2.597,2.597,0,0,1,2.65788.56184C260.038,165.205,256.29936,163.51955,256.29936,163.51955Z" transform="translate(-2 0)"/><path class="cls-9" d="M284.85551,124.92142s-15.02659-4.88-13.87378,0,13.87378,7.61687,13.87378,7.61687Z" transform="translate(-2 0)"/><polygon class="cls-2" points="306.704 150.292 302.085 149.971 291.654 149.096 291.654 147.491 306.624 148.43 306.704 150.292"/><path class="cls-2" d="M323.827,116.41364s4.09889,3.00983,8.486,3.13025S323.827,116.41364,323.827,116.41364Z" transform="translate(-2 0)"/><path class="cls-2" d="M329.12672,106.87045s3.24228-1.60525,5.06757-.26488S329.12672,106.87045,329.12672,106.87045Z" transform="translate(-2 0)"/><path class="cls-2" d="M327.59767,112.232s.20815,1.89418,5.01154,2.127S327.59767,112.232,327.59767,112.232Z" transform="translate(-2 0)"/><path class="cls-11" d="M301.78745,177.61359s-7.48529,2.48013-10.40734,1.17984-9.27855-6.26045-9.27855-6.26045-4.08288-4.01311-7.96562-8.49979l-.49635-.57787h0c-3.36238-3.92483-6.40452-8.02622-6.40452-10.05688a8.56851,8.56851,0,0,0-.31223-2.49614,10.445,10.445,0,0,0-1.60113-3.26668,9.744,9.744,0,0,0-1.377-1.55709L251.6881,130.24281s3.5385-3.78037,3.5385-4.81574,4.243-6.84639,9.66282-3.77233c2.28162,1.28417,7.73346,6.07585,13.28938,11.18856,7.64538,7.031,15.46692,14.67994,15.46692,14.67994s.55239.59393,1.361,1.517c2.07346,2.40787,5.82009,6.9427,6.11632,9.23819C301.55528,161.42467,301.78745,177.61359,301.78745,177.61359Z" transform="translate(-2 0)"/><path class="cls-12" d="M295.02269,149.00009c-5.80409,5.79491-14.53826,13.56434-20.87872,15.0331l-.16811.04012-.32823-.618h0l-6.69271-12.553-1.69719-3.21049.08805-.08828,12.85706-14.82441c7.64539,7.031,15.46692,14.68,15.46692,14.68S294.21411,148.07705,295.02269,149.00009Z" transform="translate(-2 0)"/><path class="cls-11" d="M341.94377,159.85959v2.68877s3.71463,13.147-3.00211,16.85507c-3.39439,1.88614-10.62349,2.33561-16.948,2.31959a17.96127,17.96127,0,0,1-17.7165-14.8084,10.782,10.782,0,0,1-.07205-3.81245s-3.00211-21.53437-3.71463-21.67081c0,0-16.88391,19.38335-27.2192,21.61462l-8.72615-16.35745L278.483,130.63608s10.3433-16.47786,13.34542-17.98674,6.01225-5.73074,6.01225-5.73074,12.11255-10.12909,20.15022,6.97479,13.25735,30.917,15.21073,36.04575c0,0,2.834,5.811,4.59523,5.79491h.056A4.1363,4.1363,0,0,1,341.94377,159.85959Z" transform="translate(-2 0)"/><path class="cls-2" d="M300.13828,140.51636a17.52333,17.52333,0,0,0,3.61855-6.20425c1.337-3.90074-.40028,3.95692-3.26629,7.08717Z" transform="translate(-2 0)"/><polygon class="cls-4" points="629.844 169.66 614.505 169.884 582.819 112.152 577.527 102.512 581.586 78.096 584.708 84.004 629.844 169.66"/><polygon class="cls-4" points="491.154 98.668 484.846 108.163 465.969 82.575 457.331 70.857 462.518 63.85 466.489 68.682 491.154 98.668"/><path class="cls-2" d="M468.489,68.67365c0,.48959.056.99525.08805,1.5009l-.60844,12.40053-8.63808-11.71829,5.18765-7.00691Z" transform="translate(-2 0)"/><polygon class="cls-2" points="584.708 84.004 582.819 112.152 577.527 102.512 581.586 78.096 584.708 84.004"/><path class="cls-4" d="M450.57239,86.6845s-7.57335-56.70527,20.01412-65.189a6.98237,6.98237,0,0,1,1.08074-.22473c6.34848-.7625,65.48618-7.60084,96.18787.5217,0,0,20.9748,3.17036,20.75062,14.4472l-9.30256,138.16343H564.19653l4.9555-91.33842s7.20508-39.794-4.73132-42.539-66.30277-7.2236-85.46829-1.8059c0,0-13.98584-3.17036-11.72829,31.42266l-.90464,18.54059Z" transform="translate(-2 0)"/><path class="cls-7" d="M496.5408,103.52353a8.74138,8.74138,0,0,0-3.5545-7.80149c-4.227-3.21049-17.25216-10.16924-17.25216-10.16924l-4.227.33711-12.681,31.54307.84058,66.97885,22.83212,28.31654Z" transform="translate(-2 0)"/><path class="cls-7" d="M405.43655,173.72888l.44832-68.73659s-2.02545-26.67916,13.8738-27.12863c0,0,37.49046.27289,53.78193,5.57824A3.6485,3.6485,0,0,1,475.59,88.7071c-3.20226,5.65848-8.71015,20.64342-11.352,59.073v41.20665Z" transform="translate(-2 0)"/><polygon class="cls-7" points="482.532 217.648 414.308 216.051 414.244 216.051 380.717 215.273 384.599 170.334 403.204 171.016 462.406 184.243 480.499 212.728 482.532 217.648"/><polygon class="cls-7" points="482.532 217.648 414.308 216.051 413.187 185.937 462.406 184.243 480.499 212.728 482.532 217.648"/><path class="cls-4" d="M656.87792,252.40194c-1.353,12.89011-10.48738,10.85147-10.48738,10.85147l-1.7052-.1525-16.89991-1.541.68046-20.00937a73.36279,73.36279,0,0,1,17.14007,1.03537C651.94641,243.90215,657.47834,246.67924,656.87792,252.40194Z" transform="translate(-2 0)"/><path class="cls-13" d="M422.12034,57.06771S391.0024,71.29822,388.7448,75.37553s-17.61242,21.6708-17.61242,21.6708l6.65269,11.23669,30.78172-24.53617Z" transform="translate(-2 0)"/><path class="cls-14" d="M398.40762,129.82543l-14.41016-2.15906-10.59947,12.537s-14.77045,7.344-16.49166,10.5545-7.093,12.6172-9.46268,12.68946-4.58725,3.53954-4.60325,4.912-9.02235,17.136-11.25594,18.04293-6.10831,6.0277-6.01224,7.039-8.40593,11.09225-8.40593,11.09225-14.41017,22.60986-16.55567,23.33224-10.44736,15.322-12.55285,17.05572-8.00565,3.29074-7.28515,4.69533,15.21073,21.26145,14.33011,26.88785c0,0,10.7836-8.55594,11.2079-11.18856s13.76972-16.51794,13.76972-16.51794l69.8973-72.78179,13.47352-45.86988Z" transform="translate(-2 0)"/><path class="cls-2" d="M490.97687,131.222c.48032.04816,9.23053,1.60525,11.28794,4.55889S490.97687,131.222,490.97687,131.222Z" transform="translate(-2 0)"/><path class="cls-2" d="M489.736,98.24226s7.021,3.08206,7.82154,4.99231S489.736,98.24226,489.736,98.24226Z" transform="translate(-2 0)"/><path class="cls-2" d="M400.00875,178.047c.72849.51369,17.97269,13.33958,16.56369,13.80512S400.00875,178.047,400.00875,178.047Z" transform="translate(-2 0)"/><path class="cls-2" d="M399.88063,186.07322s10.10313,4.896,8.414,6.9427S399.88063,186.07322,399.88063,186.07322Z" transform="translate(-2 0)"/><path class="cls-2" d="M410.7123,75.55211s-6.89285,10.3137-6.0683,12.47276S410.7123,75.55211,410.7123,75.55211Z" transform="translate(-2 0)"/><path class="cls-2" d="M411.721,109.1579s3.65858,1.533,4.99551,2.96971S411.721,109.1579,411.721,109.1579Z" transform="translate(-2 0)"/><path class="cls-2" d="M419.75867,119.67228s7.81352,1.89418,8.478,3.12222S419.75867,119.67228,419.75867,119.67228Z" transform="translate(-2 0)"/><path class="cls-2" d="M421.11964,130.39531s7.069.931,7.86956,3.676S421.11964,130.39531,421.11964,130.39531Z" transform="translate(-2 0)"/><path class="cls-2" d="M656.87792,252.40194c-1.353,12.89011-10.48738,10.85147-10.48738,10.85147l-1.7052-.1525a17.34547,17.34547,0,0,1-2.68989-9.67962c0-4.48668,1.425-8.45164,3.61055-10.8354C651.94641,243.90215,657.47834,246.67924,656.87792,252.40194Z" transform="translate(-2 0)"/><path class="cls-6" d="M395.50953,83.51413c-15.44287,0-27.9557,16.95942-27.9557,37.87573s12.51283,37.86772,27.9557,37.86772,27.96372-16.95942,27.96372-37.86772S410.96047,83.51413,395.50953,83.51413Zm-3.94677,67.8296c-11.76832,0-21.303-12.29618-21.303-27.47375s9.5347-27.46574,21.303-27.46574,21.311,12.29616,21.311,27.46574S403.33908,151.34373,391.56276,151.34373Z" transform="translate(-2 0)"/><polygon class="cls-6" points="394.863 133.036 407.944 145.918 412.675 134.384 393.734 123.308 394.863 133.036"/><polygon class="cls-15" points="414.148 5.483 425.532 6.872 429.759 11.904 423.355 40.799 409.745 87.351 400.811 119.311 394.534 138.719 390.531 164.402 386.529 182.06 374.52 194.099 350.103 165.205 346.1 155.574 336.493 135.909 361.311 124.271 388.53 121.863 401.339 88.956 411.746 50.831 414.148 5.483"/><polyline points="183.786 143.205 168.903 268.462 356.299 260.549 334.652 199.052 298.571 175.535 381.109 176.891 381.557 142.531 348.182 135.291 280.982 129.866 230.467 127.61 182.209 143.43"/><path class="cls-6" d="M441.81422,268.029c0,31.12571-10.3193,59.45827-38.93948,56.36011-36.09748-.80262-38.93147-25.23444-38.93147-56.36011s17.42831-54.28939,38.93147-54.28939S441.81422,236.90331,441.81422,268.029Z" transform="translate(-2 0)"/><path class="cls-2" d="M442.0384,268.08516c0-24.07867-10.44736-43.42185-25.14572-50.91836-18.87733,3.59573-33.38355,25.36285-33.38355,53.7757,0,25.50736,1.90534,46.5521,22.46384,53.71951C432.41559,325.60111,442.0384,298.14338,442.0384,268.08516Z" transform="translate(-2 0)"/><polygon class="cls-15" points="476.592 219.181 465.584 231.823 485.398 228.412 500.209 214.767 513.418 188.28 532.031 176.843 577.663 183.063 619.893 184.669 635.48 170.791 618.092 168.416 600.48 168.014 556.248 167.011 503.611 165.606 492.804 194.501 484.598 214.366 476.592 219.181"/><path d="M630.043,270.71779c-.90465,1.35643-30.42146,5.88324-30.42146,5.88324l-81.6576,14.92077L377.721,293.55236,361.2614,279.53057l-8.64609,1.541-.35225.06422L236.75759,301.691l-1.88133-.26488-31.47821-4.5027-164.412-23.49272,1.8413-23.92617,1.08876-14.12614,2.24959-29.31982,1.60113-7.68913L60.4092,197.021l6.83681-.62607,106.70725-9.81606,13.95384-1.28417,7.82151-.71435,76.22175-10.43409,111.17441,2.71287.44832-34.3683L427.5481,6.84765c9.69482,1.60525,9.47069,8.1386,9.47069,8.1386L399.57642,142.73161l-.45633,78.45634c77.85491,7.88175,80.3687-9.12582,92.68139-3.39508L506.692,170.093l130.78824.68221C642.70791,177.116,630.043,270.71779,630.043,270.71779Z" transform="translate(-2 0)"/><polygon points="303.534 199.501 345.027 288.809 359.005 293.328 362.392 278.856 346.829 229.343 330.817 200.633 303.534 199.501"/><ellipse class="cls-6" cx="276.52304" cy="297.84642" rx="75.149" ry="85.46321"/><path class="cls-2" d="M305.33394,217.72061c-39.32373,2.745-70.44969,39.87427-70.44969,85.28666,0,36.6076,20.23827,67.83766,48.68234,80.00539,39.32373-2.74495,70.44969-39.87427,70.44969-85.28666C354.0163,261.11841,333.778,229.88839,305.33394,217.72061Z" transform="translate(-2 0)"/><path d="M77.093,148.40615l-3.72262,17.60151-11.384,53.864-48.93852-4.75151s-2.93007-9.03753,4.73934-12.43261c0,0,2.51377-30.604,11.56016-40.2435a9.11812,9.11812,0,0,1,3.5465-2.48012Z" transform="translate(-2 0)"/><path d="M187.37076,153.1657c6.30843,10.61064-8.99035,108.50652-8.99035,108.50652l-120.2288-19.897,4.283-85.688c2.48175-15.37024,11.50411-17.17614,11.50411-17.17614,42.42993-21.47818,139.8106-26.005,139.8106-26.005,88.86268,3.38705,169.80776,29.61679,169.80776,29.61679C282.53388,126.928,187.37076,153.1657,187.37076,153.1657Z" transform="translate(-2 0)"/><path class="cls-2" d="M178.38041,261.67222l-120.2288-19.897,4.283-85.688c2.48175-15.37024,11.50411-17.17614,11.50411-17.17614s87.71785-8.37135,113.432,14.25458C193.67919,163.77634,178.38041,261.67222,178.38041,261.67222Z" transform="translate(-2 0)"/><ellipse class="cls-2" cx="155.37359" cy="195.88124" rx="13.75371" ry="25.09802"/><ellipse class="cls-4" cx="155.37359" cy="195.20707" rx="13.75371" ry="25.09802"/><path class="cls-5" d="M159.16686,176.66651s-5.604.89893-2.70592,8.36331,3.37839,11.30093,3.37839,11.30093,5.60395,2.94561,5.41182-6.78216S159.16686,176.66651,159.16686,176.66651Z" transform="translate(-2 0)"/><ellipse class="cls-2" cx="81.63358" cy="185.93679" rx="12.85707" ry="23.4526"/><ellipse class="cls-4" cx="81.63358" cy="185.25453" rx="12.85707" ry="23.4526"/><path class="cls-5" d="M85.43484,166.714s-5.60395.907-2.70591,8.37134,3.38639,11.30094,3.38639,11.30094,5.60395,2.93758,5.41181-6.78217S85.43484,166.714,85.43484,166.714Z" transform="translate(-2 0)"/><path class="cls-7" d="M109.20361,164.40241l-4.37107,81.86748-2.48176-.22475,4.33106-81.394A9.0161,9.0161,0,0,1,109.20361,164.40241Z" transform="translate(-2 0)"/><path class="cls-7" d="M117.04115,165.14081l-4.09089,82.73433h-3.8347l5.708-82.99921C115.5521,164.96426,116.29661,165.0445,117.04115,165.14081Z" transform="translate(-2 0)"/><path class="cls-7" d="M126.84806,166.66581l-6.45255,83.02326h-2.48975v-.11238l5.66-83.47272C124.67853,166.25647,125.7673,166.45712,126.84806,166.66581Z" transform="translate(-2 0)"/><path class="cls-7" d="M135.14992,168.88106l-6.63668,82.46141v.16054l-4.283-.4575v-.40131l7.78149-82.75838C133.1485,168.19077,134.19724,168.51987,135.14992,168.88106Z" transform="translate(-2 0)"/><path class="cls-2" d="M43.43723,232.73769s-8.28584-42.90017,10.65551-45.10738,81.18527,2.40786,79.32,20.00937S129.546,252.0648,129.546,252.0648l-12.84906-2.88143s9.60677-40.35583-5.41182-41.88083-51.92462-5.77086-51.92462-5.77086-9.983-1.69352-4.227,33.71014Z" transform="translate(-2 0)"/><path class="cls-4" d="M43.43723,236.807s-8.28584-45.613,10.65551-47.82025,81.18527,2.40787,79.32,20.00937-3.86673,44.42513-3.86673,44.42513L116.6969,250.5398s9.60677-40.35587-5.41182-41.88083-51.94864-5.73068-51.94864-5.73068-9.983,1.01934-4.227,36.46313Z" transform="translate(-2 0)"/><path d="M377.721,293.55236l-16.68379-.22476c-12.17658-53.7757-32.25476-87.26912-32.25476-87.26912-6.78875-3.61978-80.75293-3.13019-80.75293-3.13019-7.6694,1.35643-9.69482,25.78022-9.69482,25.78022s6.54062,5.61836.22415,9.27028c-2.818,1.60525-12.10453,1.91828-22.80009,1.36447-13.27335-.69024-28.74026-2.71287-36.72991-5.209-14.41016-4.5268-2.93808-12.89012-2.93808-12.89012s2.03344-2.71286,3.3864-17.65769A60.50277,60.50277,0,0,1,187.707,178.954c.62444-1.03536,1.01671-1.60524,1.01671-1.60524a7.72265,7.72265,0,0,1,2.63386-1.6534c19.11749-8.02623,112.82358-.38525,112.82358-.38525l34.7285,11.08422c.96068.38524,2.44171,2.84126,4.267,6.7661C354.15238,216.74942,377.721,293.55236,377.721,293.55236Z" transform="translate(-2 0)"/><path d="M227.95937,190.68026c-2.02543,7.00688-10.35129,35.05051-10.35129,35.05051a118.94571,118.94571,0,0,0-1.8333,13.57232c-13.27336-.69024-28.74027-2.71287-36.72991-5.209-14.41017-4.5268-2.93809-12.89012-2.93809-12.89012s2.03344-2.71286,3.3864-17.65769a60.19207,60.19207,0,0,1,9.24651-26.22969,7.72284,7.72284,0,0,1,2.63387-1.6534C203.8944,178.649,229.49647,185.37494,227.95937,190.68026Z" transform="translate(-2 0)"/><path d="M248.59793,12.63455c-8.96634,1.35644-12.85707,20.00937-12.85707,20.00937L211.3877,114.20643l172.16946,28.31649,43.975-135.64318C387.11162-11.44412,248.59793,12.63455,248.59793,12.63455ZM387.09559,99.79131s-1.01673,7.80147-7.61338,8.48373l-111.62272-4.37431-22.89616-.907-7.67741-.297h-.54438s-8.462,1.525-7.109-5.61836c0,0,9.30256-67.82159,25.71414-72.91021,0,0,1.7052-.36119,4.69129-.923,4.6913-.8909,12.52085-2.28748,21.74334-3.56364,4.13092-.56986,8.542-1.11566,13.08123-1.60525,12.40074-1.26813,25.73016-1.95037,36.76191-.88289,0,0,82.194-7.63295,76.27783,10.6829.016.02408-17.23613,66.32069-20.79064,71.915Z" transform="translate(-2 0)"/><path d="M237.302,102.6968h-.54438s-8.462,1.525-7.109-5.61836c0,0,9.30255-67.82159,25.71413-72.91021,0,0,1.70521-.36119,4.6913-.923C254.0978,34.89929,234.98034,74.79764,237.302,102.6968Z" transform="translate(-2 0)"/><path class="cls-2" d="M252.45666,269.98738a10.88213,10.88213,0,0,1-10.1912,5.73073l-3.45043-.1525L206.30411,274.161l-11.72028-.50565-10.82363-.89894L40.82739,249.48038l1.08876-14.12613,16.4356,2.35971,6.8048.97918,100.91117,14.4472,13.28136,1.9584,6.44454.923,27.29125-.20066,29.54083-.21672a11.08584,11.08584,0,0,1,4.35507.80262,10.60309,10.60309,0,0,1,5.724,5.44979A8.93749,8.93749,0,0,1,252.45666,269.98738Z" transform="translate(-2 0)"/><path class="cls-4" d="M252.45666,271.34381a10.88215,10.88215,0,0,1-10.1912,5.73074l-47.68163-2.06275-10.82363-.907-152.4275-24.793-12.00847-1.95037-6.5006-1.09156c-12.84906-2.71286-9.01436-15.603-9.01436-15.603.89664-5.88323,23.00023-11.309,30.21331-11.07618,4.85142.15251,5.5239,7.641,5.44384,12.545a32.42142,32.42142,0,0,1-.25618,4.18168l7.133,1.02738,139.45037,20.00133,56.8401-.41738a10.9172,10.9172,0,0,1,10.0791,6.29258A8.93751,8.93751,0,0,1,252.45666,271.34381Z" transform="translate(-2 0)"/><path class="cls-2" d="M23.64727,227.76142s6.0923,7.45635,15.563,8.58807C39.21025,236.34949,35.37554,227.98613,23.64727,227.76142Z" transform="translate(-2 0)"/><path class="cls-2" d="M22.07016,248.79014S2,248.33264,2,259.22423s12.63291,12.66541,12.63291,12.66541l179.27845,34.57693,50.964.89894s17.81256-14.23852-.68049-20.57122l-51.40425,1.33238L21.846,256.704S26.35318,250.596,22.07016,248.79014Z" transform="translate(-2 0)"/><path class="cls-4" d="M244.87531,308.69789l-50.964-.89894L34.50292,277.04246,22.8387,274.78709l-8.20579-1.60524S2,271.36791,2,260.51644c0-7.78545,10.34329-9.75188,16.17941-10.24147,2.29762-.18459,3.89075-.1525,3.89075-.1525,4.283,1.8059-.22416,7.90581-.22416,7.90581l6.22038,1.14775L192.79057,289.4831l51.41227-1.35643C262.68787,294.42724,244.87531,308.69789,244.87531,308.69789Z" transform="translate(-2 0)"/><path class="cls-4" d="M37.17681,239.96933l10.59948-4.75151,5.41182-.22476-.44832,45.66923-16.68377-3.387-6.99693-4.51882-3.37839-18.99s1.353-7.91385,2.02543-8.58807S37.17681,239.96933,37.17681,239.96933Z" transform="translate(-2 0)"/><path class="cls-2" d="M37.17681,239.96933l10.59948-4.75151,5.41182-.22476-.44832,45.66923-16.68377-3.387-6.99693-4.51882-3.37839-18.99s1.353-7.91385,2.02543-8.58807S37.17681,239.96933,37.17681,239.96933Z" transform="translate(-2 0)"/><path class="cls-2" d="M34.50292,277.04246l.19214.23274-11.72027-2.2634-.13609-.22476c-6.17236-9.99261-6.70873-18.08305-4.65929-24.504,2.29762-.18459,3.89075-.1525,3.89075-.1525,4.283,1.8059-.22416,7.90581-.22416,7.90581l6.22038,1.14774C27.65009,268.14135,33.35812,275.62983,34.50292,277.04246Z" transform="translate(-2 0)"/><path class="cls-2" d="M51.84316,235.03318a59.92446,59.92446,0,0,0-5.49988,2.40787c-7.58936,3.66-12.27266,7.76938-15.01059,11.935l-12.00847-1.95037c5.19566-10.81933,17.61242-15.76351,17.61242-15.76351l2.51377.56988Z" transform="translate(-2 0)"/><path class="cls-4" d="M38.28159,231.606S5.36238,244.72084,24.30373,275.0118L36.032,277.2752S12.81563,250.596,53.16409,234.99306Z" transform="translate(-2 0)"/><polygon class="cls-4" points="114.785 246.302 126.962 245.853 124.928 294.909 105.306 291.297 96.964 287.228 93.13 277.5 90.424 267.78 96.964 258.959 104.41 253.991 114.785 246.302"/><polygon class="cls-2" points="114.785 246.302 126.962 245.853 124.928 294.909 105.306 291.297 96.964 287.228 93.13 277.5 90.424 267.78 96.964 258.959 104.41 253.991 114.785 246.302"/><ellipse class="cls-4" cx="113.43201" cy="271.62471" rx="5.86014" ry="9.9445"/><path class="cls-4" d="M72.866,299.37137c-1.68919-8.64426-8.28585-10.51433-8.28585-10.51433S51.89119,285.13286,51.555,299.243c0,0,.16812,8.65229,5.92418,11.36511l.33623,9.63147s.50436,8.98938-4.57122,8.1386-4.3951-8.82884-4.3951-8.82884-2.7059-8.47569-9.30256-4.0693c0,0-1.52108,4.75151,1.86532,7.12729,1.96938,1.38048,2.04144,4.20573,1.76124,6.32466A9.21439,9.21439,0,0,0,45.28653,336.3a8.51406,8.51406,0,0,0,8.13373,2.92156,12.60965,12.60965,0,0,0,7.045-4.06127A18.55047,18.55047,0,0,0,65.34868,322.808l.24817-12.40856S74.55517,308.02366,72.866,299.37137ZM62.45864,308.1039a7.22362,7.22362,0,1,1,7.20508-7.2236h0a7.21427,7.21427,0,0,1-7.19707,7.19152Z" transform="translate(-2 0)"/><path class="cls-6" d="M59.51257,285.12482a3.21347,3.21347,0,0,0-1.72058,4.19986q.05414.12992.11945.25469c1.32894,2.49614,2.92206,5.7227,2.77,6.57348-.25619,1.43667,2.96209.25684,3.37838-.08828s6.26042,0,6.59666-4.01311a6.86559,6.86559,0,0,0-3.1222-6.108l1.353-8.73253-8.00565-.67423.08806,7.97Z" transform="translate(-2 0)"/><path class="cls-2" d="M59.51257,285.12482a3.21347,3.21347,0,0,0-1.72058,4.19986q.05414.12992.11945.25469c1.32894,2.49614,2.92206,5.7227,2.77,6.57348-.25619,1.43667,2.96209.25684,3.37838-.08828s6.26042,0,6.59666-4.01311a6.86559,6.86559,0,0,0-3.1222-6.108l1.353-8.73253-8.00565-.67423.08806,7.97Z" transform="translate(-2 0)"/><path class="cls-2" d="M61.70611,284.96434s2.70591,9.32646,1.52107,9.63147S61.70611,284.96434,61.70611,284.96434Z" transform="translate(-2 0)"/><path class="cls-2" d="M64.74826,282.75713s2.70591,9.32646,1.52106,9.63146S64.74826,282.75713,64.74826,282.75713Z" transform="translate(-2 0)"/><path class="cls-6" d="M97.17113,254.66534l-4.51519,28.0356s-5.60395-.76251-8.6621-1.4287a6.23325,6.23325,0,0,1-1.93737-.602c-.16011-.16054-.48834-.14447-.92866-.05619h0c-1.50506.305-4.17894,1.54905-4.69931.49762a.74581.74581,0,0,0-.1521-.21672h0c-.52838-.57787-1.5531-.16054-2.54579,0a2.15672,2.15672,0,0,1-1.60113-.20869c-.80057-.56185-2.52178.33708-3.89875.63405-.87261.19262-1.60113.1525-1.96939-.63405a1.81758,1.81758,0,0,0-1.34495-.96316h0c-1.29691-.329-3.11419-.10434-4.16293-.329a.95128.95128,0,0,1-.80057-.52173c-.20814-.61-1.369-.89893-2.60983-1.13971-1.51307-.28893-3.13821-.50565-3.25831-1.11565,0-.20869-.18412-.297-.40828-.305a13.95031,13.95031,0,0,0-2.46574.61h0c-.67247.17655-1.24088.17655-1.401-.305s-.95267-.48156-1.8413-.26488c-.7125.17655-1.50506.4575-2.11349.602s-.94467.14447-1.00871-.12041c-.22416-.89893-3.15423,1.13971-3.8267-.67422s-9.943-13.83711,2.06544-29.408c0,0,3.20226.22476,5.7.67422a8.92483,8.92483,0,0,1,2.4017.67423h0c.8566.48959,2.68989.38524,4.34706.50565a5.59226,5.59226,0,0,1,2.4017.57787,1.60374,1.60374,0,0,1,.68048.72238c.37627.85881,1.24088,1.03536,2.18554.98721,1.28091-.08025,2.70591-.56185,3.20226-.305h.048c.94466.40934,4.48317,0,5.08359.602l.048.05619c.25619.37721,1.60113,0,3.05816-.20869h0c1.09677-.14446,2.20156-.16053,2.802.44144a3.05272,3.05272,0,0,0,2.19355.65012,12.87851,12.87851,0,0,1,2.874.11238,1.22409,1.22409,0,0,1,.5684.36119c.56841.71434,1.94537.618,3.20226.68221a3.25991,3.25991,0,0,1,1.79327.44946,1.679,1.679,0,0,0,.64846.27292c1.72922.40131,5.43583-.27292,5.43583-.27292Z" transform="translate(-2 0)"/><path class="cls-2" d="M47.96842,276.33615c-.7125.17655-1.50506.4575-2.11349.602-9.15846-14.24654-1.449-25.06588,2.89-29.51244a8.92466,8.92466,0,0,1,2.40169.67423C41.93216,258.74263,46.20718,272.03405,47.96842,276.33615Z" transform="translate(-2 0)"/><path class="cls-2" d="M53.68446,276.296a13.95031,13.95031,0,0,0-2.46574.61h0c-7.83753-13.89339.22416-24.28736,4.299-28.29244a5.59221,5.59221,0,0,1,2.40169.57786C49.15326,258.80685,51.7551,270.774,53.68446,276.296Z" transform="translate(-2 0)"/><path class="cls-2" d="M60.75345,279.37807a.95128.95128,0,0,1-.80057-.52173c-.20814-.61-1.369-.89893-2.60983-1.13971-6.87685-12.58511-.72852-22.2567,3.44243-26.81559,1.2809-.08024,2.70591-.56184,3.20225-.305h.048C54.36493,261.51972,59.04824,275.32483,60.75345,279.37807Z" transform="translate(-2 0)"/><path class="cls-2" d="M68.23872,281.30438c-.87261.19262-1.60113.1525-1.9694-.63405a1.81754,1.81754,0,0,0-1.34494-.96316h0c-8.00564-14.02179.16011-24.50408,4.235-28.49309l.048.05619c.25618.3772,1.60112,0,3.05816-.20869C60.86553,262.59526,66.72565,277.90925,68.23872,281.30438Z" transform="translate(-2 0)"/><path class="cls-2" d="M76.26038,280.887c-.52838-.57786-1.5531-.16053-2.54579,0-8.3579-13.91749-.68048-24.43183,3.5465-28.72584a12.87963,12.87963,0,0,1,2.874.11238C70.37623,262.79591,74.40306,276.2077,76.26038,280.887Z" transform="translate(-2 0)"/><path class="cls-2" d="M83.99384,281.27224a6.23325,6.23325,0,0,1-1.93737-.602c-.16011-.16054-.48834-.14447-.92866-.05619h0c-7.40522-12.71356-1.49705-22.52962,2.754-27.28916a3.25991,3.25991,0,0,1,1.79327.44946,1.67905,1.67905,0,0,0,.64845.27292C78.22176,264.51349,82.31265,277.13073,83.99384,281.27224Z" transform="translate(-2 0)"/><ellipse class="cls-6" cx="300.60402" cy="301.92371" rx="36.75393" ry="54.25725"/><ellipse class="cls-2" cx="299.36315" cy="302.71031" rx="26.72285" ry="43.97566"/><ellipse class="cls-5" cx="299.36315" cy="301.35388" rx="26.72285" ry="43.97566"/><ellipse class="cls-6" cx="304.20656" cy="271.84947" rx="3.15423" ry="5.42574"/><ellipse class="cls-6" cx="316.83947" cy="319.33259" rx="3.15423" ry="5.42574"/><ellipse class="cls-6" cx="282.78347" cy="296.72273" rx="3.15423" ry="5.42574"/><path d="M571.63376,201.53173s26.41863,70.54249,25.03367,74.94888c0,0,11.15988,6.78217,13.86579,5.08865s.34424-32.90752.34424-32.90752L605.80185,221.196l-5.75606-16.27721Z" transform="translate(-2 0)"/><ellipse class="cls-6" cx="321.34665" cy="289.94056" rx="3.15423" ry="5.42574"/><ellipse class="cls-6" cx="304.20656" cy="303.0474" rx="9.24651" ry="12.89011"/><path class="cls-6" d="M601.07855,295.81576c0,40.82939-13.52956,77.99883-51.076,73.92953-47.35342-1.01934-51.076-33.10014-51.076-73.92953s22.8481-71.21667,51.06-71.21667S601.07855,254.97833,601.07855,295.81576Z" transform="translate(-2 0)"/><path class="cls-2" d="M601.35873,295.88c0-31.60727-13.70566-56.98619-32.99129-66.79426-24.76146,4.71943-43.79089,33.27674-43.79089,70.52643,0,33.46132,2.50577,60.9993,29.46878,70.47023C588.73386,371.33452,601.35873,335.361,601.35873,295.88Z" transform="translate(-2 0)"/><path class="cls-2" d="M621.0206,278.51926s-6.76478,5.76282-10.48738,1.69352c0,0-9.13442-73.25536-20.63057-73.59245l-39.57992-.33709s-4.73131,2.03066-6.76478,10.85147l-25.61807,73.03864L377.721,292.19592,367.00945,269.7225l116.02583.33708v-.04815c.62447-2.25537,20.01412-71.65815,33.03932-80.26224h0a5.59753,5.59753,0,0,1,1.433-.69828s48.37011-6.421,64.26936-2.03864c0,0,16.5717,3.73221,20.63057,8.82885h0c.54438.56988,6.82082,7.657,8.76619,28.09178Z" transform="translate(-2 0)"/><path d="M621.0206,279.87569s-6.76478,5.76282-10.48738,1.69352c0,0-9.13442-73.25536-20.63057-73.59245l-39.57992-.33708s-4.73131,2.03065-6.76478,10.85147l-25.61807,73.03863L377.721,293.55236l-10.71156-22.47343,116.02583.33709v-.04816c.62447-2.25536,20.01412-71.6581,33.03932-80.26223h0a5.59687,5.59687,0,0,1,1.433-.69828s48.37011-6.421,64.26936-2.03864c0,0,16.5717,3.73221,20.63057,8.82884v.04012c.54438.56988,6.82082,7.657,8.76619,28.09179Z" transform="translate(-2 0)"/><path d="M497.22131,163.55164l-15.89925,52.2186-82.87447-2.40786.6725,7.80146s64.94981,9.495,92.68139-3.39507L506.692,170.06892l130.78824.67423-24.91356-5.8752Z" transform="translate(-2 0)"/><path class="cls-2" d="M108.66723,245.84448S64.2439,268.22963,97.16312,289.25835l8.80622,2.03065s-32.24675-23.276,21.61524-45.44447Z" transform="translate(-2 0)"/><path class="cls-4" d="M110.02019,245.84448s-44.42334,22.38515-11.50411,43.41387l8.80621,2.03065s-32.24674-23.276,21.61525-45.44447Z" transform="translate(-2 0)"/><ellipse class="cls-6" cx="567.60035" cy="301.57859" rx="24.68944" ry="42.39452"/><ellipse class="cls-2" cx="566.76778" cy="302.49359" rx="17.94865" ry="34.35223"/><ellipse class="cls-5" cx="566.76778" cy="301.13715" rx="17.94865" ry="34.35223"/><ellipse class="cls-6" cx="570.02608" cy="278.08586" rx="2.12152" ry="4.23787"/><ellipse class="cls-6" cx="578.51205" cy="315.18305" rx="2.12152" ry="4.23787"/><ellipse class="cls-6" cx="555.6319" cy="297.51732" rx="2.12152" ry="4.23787"/><ellipse class="cls-6" cx="561.84429" cy="322.24611" rx="2.12152" ry="4.23787"/><ellipse class="cls-6" cx="581.53816" cy="292.22003" rx="2.12152" ry="4.23787"/><ellipse class="cls-6" cx="570.02608" cy="302.4615" rx="6.21239" ry="10.06487"/><path class="cls-2" d="M211.04344,113.03458s75.101,2.71287,172.51367,29.50441Z" transform="translate(-2 0)"/><path class="cls-4" d="M569.33614,51.38552s-4.07489.5433-1.95338,4.99573a27.77089,27.77089,0,0,1,2.47377,6.75151s4.08286,1.75579,3.91477-4.05488S569.33614,51.38552,569.33614,51.38552Z" transform="translate(-2 0)"/><path d="M414.547,17.12121,402.59456,76.65973l-8.462,17.91454,5.60395,10.43409,12.40875-29.29572s13.6096-42.9403,13.6096-44.14423S414.547,17.12121,414.547,17.12121Z" transform="translate(-2 0)"/></svg>