<svg id="f5797293-4767-4b98-be82-dd8b3477ccfb" xmlns="http://www.w3.org/2000/svg" viewBox="0 0 866.70211 387.90786"><defs><style>.cls-1{fill:#cacaca;}.cls-2,.cls-6{fill:#fff;}.cls-3{fill:#3f3d56;}.cls-4{fill:#2f2e41;}.cls-5,.cls-6{stroke:#000;stroke-miterlimit:10;}.cls-5{stroke-width:0.25px;}.cls-6{stroke-width:0.65657px;}.cls-7{fill:#e4e4e4;}</style></defs><title>car</title><polygon class="cls-1" points="0.15 296.084 0.15 296.484 0 296.664 0.15 296.084"/><path class="cls-2" d="M161.58492,179.75207q-4.75488,1.605-9.5,3.22v-3.22Z" transform="translate(80.542 -3.0242)"/><rect class="cls-2" x="480.55381" y="49.51155" width="30.11386" height="30.11386"/><rect class="cls-2" x="529.07059" y="49.51155" width="30.11383" height="30.11386"/><rect class="cls-2" x="577.58738" y="49.51155" width="30.11383" height="30.11386"/><rect class="cls-2" x="481.3903" y="118.10423" width="30.11386" height="30.11383"/><rect class="cls-2" x="529.90708" y="118.10423" width="30.11383" height="30.11383"/><rect class="cls-2" x="578.42387" y="118.10423" width="30.11383" height="30.11383"/><rect class="cls-2" x="482.22681" y="186.69694" width="30.11386" height="30.11383"/><rect class="cls-2" x="530.74357" y="186.69694" width="30.11383" height="30.11383"/><rect class="cls-2" x="579.26035" y="186.69694" width="30.11383" height="30.11383"/><path class="cls-2" d="M432.63522,258.31207v15.63q-7.68018-3.165-15.27-6.57-7.47-3.37509-14.83985-6.97v-2.09Z" transform="translate(80.542 -3.0242)"/><path class="cls-2" d="M481.15523,258.31207v30.12H472.0151q-8.32472-2.70006-16.54981-5.67c-1.48-.52-2.96-1.07-4.43017-1.61005v-22.84Z" transform="translate(80.542 -3.0242)"/><rect class="cls-2" x="580.09684" y="255.28966" width="30.11383" height="30.11383"/><rect class="cls-2" x="733.1757" y="186.69694" width="30.11383" height="30.11383"/><rect class="cls-2" x="781.69248" y="186.69694" width="30.11383" height="30.11383"/><rect class="cls-2" x="830.20927" y="186.69694" width="30.11383" height="30.11383"/><rect class="cls-2" x="734.01218" y="255.28966" width="30.11383" height="30.11383"/><rect class="cls-2" x="782.52897" y="255.28966" width="30.11383" height="30.11383"/><rect class="cls-2" x="831.04575" y="255.28966" width="30.11383" height="30.11383"/><path class="cls-3" d="M635.211,324.08557s10.71246,38.099,55.5777,36.36725,64.26111-37.06,64.26111-37.06Z" transform="translate(80.542 -3.0242)"/><polygon class="cls-4" points="97.51 172.475 84.692 195.951 86.773 240.014 393.93 331.282 527.683 347.731 501.534 188.219 410.031 172.017 272.765 175.939 156.39 154.465 97.51 172.475"/><path class="cls-3" d="M59.72593,329.97357H51.79681A40.14409,40.14409,0,0,1,15.27247,306.799C3.04858,280.1134,6.66958,243.2124,6.72318,242.68609c2.77-31.89508,20.25026-52.7041,43.50069-51.75976,25.66746,1.035,47.55461,89.81414,48.47377,93.59289a33.08735,33.08735,0,0,1-1.15288,19.199A40.01011,40.01011,0,0,1,59.72593,329.97357Z" transform="translate(80.542 -3.0242)"/><path class="cls-3" d="M383.06472,390.93206a27.93288,27.93288,0,0,1-4.04681-.391,62.70025,62.70025,0,0,1-47.34729-36.04321c-3.21494-6.99133-6.3078-14.14978-9.1926-21.27716-11.58463-28.621-1.87317-78.6543,13.90662-98.02045,13.92724-17.09314,27.94482-16.95788,49.16531-16.75763,2.17859.021,4.43549.04193,6.77826.046,23.56091.03858,48.46936,86.70978,56.65454,115.19074.65143,2.26617,1.19025,4.14136,1.607,5.54779,1.28241,4.32806,1.13,9.50445-.45306,15.3844-4.99438,18.551-21.45374,32.30908-40.957,34.23633C395.17147,390.23059,386.385,390.93206,383.06472,390.93206Z" transform="translate(80.542 -3.0242)"/><path class="cls-3" d="M6.23069,243.03857s-9.00523-40.17718,4.50261-67.53918L24.3475,142.5957l51.446,47.797L87.541,265.1831l201.31526,30.50141s-12.46875-122.60962,65.80741-127.45862,115.418,127.45855,115.418,127.45855l39.05627,28.40113L781.37276,303.997s4.80585,13.16149-2.09967,20.08856-337.328,28.40112-337.328,28.40112-16.625-164.17218-82.43243-148.93256-46.12519,130.75214-46.12519,130.75214l-235.115-41.39264S70.65266,181.38739,31.86092,181.38739,6.23069,243.03857,6.23069,243.03857Z" transform="translate(80.542 -3.0242)"/><polygon class="cls-3" points="133.163 100.316 177.521 30.797 366.632 19.727 576.523 22.513 674.188 113.265 372.165 130.561 129.025 117.382 133.163 100.316"/><path class="cls-5" d="M52.62315,103.36334s-37.73359.78692-41.88985,72.136c0,0,40.17715-72.73449,74.81264,89.35956l206.77382,33.59644S284.7,163.377,362.97613,173.76757s96.97934,134.38569,96.97934,134.38569S475.19509,338.6325,559.013,333.7835s209.19831-12.46875,222.3598-29.78649c0,0,30.47925-103.21375-64.422-169.71387L593.64846,116.2727l-279.162,5.54169Z" transform="translate(80.542 -3.0242)"/><path class="cls-1" d="M147.1971,151.9472H123.645a4.849,4.849,0,0,1-.03491-9.69794q.01745-.00009.03491,0H147.1971a4.849,4.849,0,0,1,0,9.69794Z" transform="translate(80.542 -3.0242)"/><circle class="cls-2" cx="586.21635" cy="284.34776" r="15.23962"/><path class="cls-2" d="M498.12423,212.59381c-10.43378,0-22.8902-4.45392-34.03986-13.04242-19.67407-15.15637-27.93976-37.53485-18.42547-49.88526,9.51428-12.35107,33.26123-10.068,52.93512,5.0871,9.50787,7.32489,16.66644,16.53034,20.157,25.92047,3.51123,9.44629,2.8963,17.957-1.73175,23.96411C512.89706,209.98938,506.10152,212.59381,498.12423,212.59381Z" transform="translate(80.542 -3.0242)"/><path class="cls-6" d="M752.45219,191.58649c-6.48029,0-18.12-7.05614-29.64465-18.50682-6.90774-6.86393-12.63055-14.22094-16.1141-20.7164-3.53837-6.598-4.34444-11.56123-2.26945-13.97592s6.73988-1.94245,13.13566,1.32958c6.29644,3.2216,13.56821,8.77562,20.47626,15.63955,14.57817,14.485,22.65318,29.72419,18.38386,34.69293A4.96975,4.96975,0,0,1,752.45219,191.58649Z" transform="translate(80.542 -3.0242)"/><path class="cls-2" d="M125.16231,103.349q-.24705,0-.4967-.023l-50.0892-4.65716a5.38828,5.38828,0,0,1-4.08-8.20532L98.7419,44.925a5.3846,5.3846,0,0,1,4.34127-2.54287l37.35914-1.64823a5.38829,5.38829,0,0,1,5.3993,6.9281l-15.51529,51.8436A5.4068,5.4068,0,0,1,125.16231,103.349Z" transform="translate(80.542 -3.0242)"/><path class="cls-2" d="M257.15563,114.01867q-.741,0-1.4928-.073l-86.5943-8.52459a15.11781,15.11781,0,0,1-13.105-19.02045l12.45746-45.71a15.04776,15.04776,0,0,1,14.05866-11.13376l69.88537-2.4404a15.20221,15.20221,0,0,1,15.545,13.3678l5.7666,49.74722a15.0865,15.0865,0,0,1-.24845,4.97174l-1.51547,6.92743A15.12348,15.12348,0,0,1,257.15563,114.01867Z" transform="translate(80.542 -3.0242)"/><path class="cls-2" d="M324.73585,116.4213a11.26778,11.26778,0,0,1-10.93272-8.6928L298.5314,41.69709a11.22058,11.22058,0,0,1,10.93282-13.74887l181.153.01306a11.2806,11.2806,0,0,1,8.0542,3.409l59.16528,61.0101A11.22086,11.22086,0,0,1,550.03156,111.41l-225.04678,5.0086C324.90174,116.4207,324.81837,116.42131,324.73585,116.4213Z" transform="translate(80.542 -3.0242)"/><path d="M95.42933,36.26413l1.54632-2.42389S105.98087,8.90268,229.97591,4.74643,469.65346,2.6683,495.9764,25.52771L281.92913,24.835,101.1319,37.3038Z" transform="translate(80.542 -3.0242)"/><path class="cls-7" d="M36.70991,213.94476c-13.00759,0-23.55213,21.70953-23.55213,48.48968s10.54454,48.48969,23.55213,48.48969S60.262,289.21453,60.262,262.43444,49.71746,213.94476,36.70991,213.94476ZM37.749,224.33538c2.86926,0,5.19533,5.58246,5.19533,12.46875s-2.32607,12.46875-5.19533,12.46875-5.19533-5.58245-5.19533-12.46875S34.87971,224.33538,37.749,224.33538Zm3.1172,38.099c0,2.29541-1.55082,4.15625-3.46354,4.15625s-3.46355-1.86084-3.46355-4.15625,1.55083-4.15625,3.46355-4.15625,3.46354,1.86084,3.46354,4.15631Zm-18.097,2.66754c-4.45425.34406-8.18094-.88146-8.32435-2.73724s3.35092-3.63922,7.80516-3.98328c4.4539-.344,8.1806.88147,8.324,2.73731s-3.35095,3.63916-7.80485,3.98328ZM37.749,300.53338c-2.86927,0-5.19532-5.58246-5.19532-12.46875s2.32607-12.46875,5.19532-12.46875,5.19532,5.58246,5.19532,12.46875-2.32609,12.46881-5.19537,12.46881Zm13.42124-35.43146c-4.45423.34406-8.18093-.88146-8.32435-2.73724s3.35091-3.63922,7.80516-3.98328c4.4539-.344,8.1806.88147,8.324,2.73731s-3.35093,3.63916-7.80485,3.98328Z" transform="translate(80.542 -3.0242)"/><path class="cls-7" d="M365.747,246.50207c-20.65884,0-37.40631,27.7572-37.40631,61.9975s16.74747,61.9975,37.40631,61.9975,37.40631-27.75727,37.40631-61.9975S386.40585,246.50207,365.747,246.50207ZM343.39983,313.152c-6.03314.466-11.08151-1.194-11.27566-3.70782s4.53915-4.92944,10.57226-5.39551,11.08149,1.194,11.27564,3.70776c.1944,2.51386-4.53909,4.92951-10.57224,5.39563ZM365.769,360.45275c-3.8865,0-7.0372-7.5617-7.0372-16.88952s3.15067-16.88953,7.0372-16.88953c3.88669,0,7.03739,7.56171,7.03739,16.88953s-3.1507,16.88959-7.03739,16.88959Zm-5.56366-51.60687c0-3.67273,2.48114-6.65,5.54166-6.65s5.54169,2.97735,5.54169,6.65-2.48114,6.65-5.54169,6.65-5.54166-2.97724-5.54166-6.65Zm5.56366-17.82782c-3.8865,0-7.0372-7.56164-7.0372-16.88952s3.15067-16.88947,7.0372-16.88947c3.88669,0,7.03739,7.56165,7.03739,16.88947s-3.1507,16.88958-7.03739,16.88958ZM389.4902,311.7666c-6.03315.466-11.08149-1.194-11.27564-3.70783s4.53931-4.92944,10.57245-5.3955,11.0813,1.194,11.27545,3.70776S395.52334,311.30053,389.4902,311.7666Z" transform="translate(80.542 -3.0242)"/><path class="cls-1" d="M234.82485,122.50708l8.31253,19.39587s13.85419,5.54169,22.85941-13.1615l-18.24771-18.24774Z" transform="translate(80.542 -3.0242)"/><path class="cls-1" d="M223.39516,127.0097c-14.89648,0-27.01568-8.07916-27.01568-18.01044,0-9.931,12.1192-18.01043,27.01568-18.01043s27.01569,8.07946,27.01569,18.01043C250.41082,118.9306,238.29162,127.0097,223.39516,127.0097Z" transform="translate(80.542 -3.0242)"/><path class="cls-3" d="M744.31576,190.39257l-154.877,4.52735s-33.89422,9.50744-37.35284,36.67157c0,0,4.842,22.184,17.293,22.184s203.36548-9.96021,203.36548-9.96021,12.451-19.01489,2.07513-32.59692S744.31576,190.39257,744.31576,190.39257Z" transform="translate(80.542 -3.0242)"/><rect class="cls-7" x="576.08306" y="202.04933" width="181.72485" height="2.07788" transform="translate(74.19539 19.12518) rotate(-1.89362)"/><rect class="cls-7" x="566.7406" y="210.10571" width="197.73803" height="2.07758" transform="translate(71.6677 27.31763) rotate(-2.59409)"/><rect class="cls-7" x="559.31082" y="220.26121" width="212.14191" height="2.07843" transform="translate(69.63267 32.97342) rotate(-3.0738)"/></svg>