<svg id="f5797293-4767-4b98-be82-dd8b3477ccfb" xmlns="http://www.w3.org/2000/svg" viewBox="0 0 867.90243 392.35188"><defs><style>.cls-1{fill:#cacaca;}.cls-2{fill:#f6f6f6;}.cls-3{fill:#3f3d56;}</style></defs><title>gomas</title><polygon class="cls-1" points="0.15 299.108 0.15 299.508 0 299.688 0.15 299.108"/><ellipse class="cls-2" cx="744.7783" cy="246.81219" rx="11.45154" ry="126.13439"/><ellipse class="cls-2" cx="745.06096" cy="246.81219" rx="115.53084" ry="12.88006"/><ellipse class="cls-2" cx="664.51896" cy="246.81219" rx="120.42356" ry="11.9946" transform="translate(146.6121 626.76044) rotate(-52.78673)"/><ellipse class="cls-2" cx="664.2363" cy="246.53999" rx="11.93171" ry="121.05831" transform="translate(58.03668 420.83218) rotate(-34.60382)"/><path class="cls-3" d="M664.2363,101.27251c-67.99271,0-123.12412,65.1665-123.12412,145.53968S596.24359,392.35188,664.2363,392.35188s123.12413-65.1665,123.12413-145.53969S732.229,101.27251,664.2363,101.27251Zm0,254.915c-53.70406,0-97.24453-48.97192-97.24453-109.37528s43.54047-109.37527,97.24453-109.37527,97.24454,48.97191,97.24454,109.37527S717.94037,356.18747,664.2363,356.18747Z" transform="translate(80.542)"/><ellipse class="cls-2" cx="745.06096" cy="246.94869" rx="16.07672" ry="18.0822"/><ellipse class="cls-2" cx="203.66613" cy="246.53999" rx="11.45154" ry="126.13439"/><ellipse class="cls-2" cx="203.94879" cy="246.53999" rx="115.53084" ry="12.88006"/><ellipse class="cls-2" cx="123.40679" cy="246.53999" rx="120.42356" ry="11.9946" transform="translate(-67.02756 195.71658) rotate(-52.78673)"/><ellipse class="cls-2" cx="123.12413" cy="246.26778" rx="11.93171" ry="121.05831" transform="translate(-37.53229 113.48716) rotate(-34.60382)"/><path class="cls-3" d="M123.12413,101.0003C55.13141,101.0003,0,166.1668,0,246.54S55.13141,392.07967,123.12413,392.07967,246.24825,326.91317,246.24825,246.54,191.11684,101.0003,123.12413,101.0003Zm0,254.915c-53.70407,0-97.24454-48.97191-97.24454-109.37527s43.54047-109.37528,97.24454-109.37528S220.36866,186.13662,220.36866,246.54,176.82819,355.91526,123.12413,355.91526Z" transform="translate(80.542)"/><ellipse class="cls-2" cx="203.94879" cy="246.67648" rx="16.07672" ry="18.0822"/><ellipse class="cls-2" cx="479.94798" cy="145.53968" rx="11.45154" ry="126.13439"/><ellipse class="cls-2" cx="480.23065" cy="145.53968" rx="115.53084" ry="12.88006"/><ellipse class="cls-2" cx="399.68865" cy="145.53968" rx="120.42356" ry="11.9946" transform="translate(122.5992 375.82768) rotate(-52.78673)"/><ellipse class="cls-2" cx="399.40598" cy="145.26748" rx="11.93171" ry="121.05831" transform="matrix(0.8231, -0.5679, 0.5679, 0.8231, 68.70032, 252.52014)"/><path class="cls-3" d="M399.406,0C331.41327,0,276.28186,65.1665,276.28186,145.53968S331.41327,291.07937,399.406,291.07937s123.12413-65.1665,123.12413-145.53969S467.3987,0,399.406,0Zm0,254.915c-53.70406,0-97.24453-48.97192-97.24453-109.37528S345.70192,36.16441,399.406,36.16441s97.24454,48.97191,97.24454,109.37527S453.11005,254.915,399.406,254.915Z" transform="translate(80.542)"/><ellipse class="cls-2" cx="480.23065" cy="145.67618" rx="16.07672" ry="18.0822"/></svg>