<svg id="b9b3c72a-3b99-4e28-aee4-7b73d40b397f" xmlns="http://www.w3.org/2000/svg" viewBox="0 0 405.5 260.34425"><defs><style>.cls-1{fill:#3f3d56;}.cls-2,.cls-3{fill:#fff;}.cls-3{stroke:#000;stroke-miterlimit:10;stroke-width:0.5px;}</style></defs><title>motor</title><path d="M160.50977,111.52342h-95.981L63.51123,82.01274a8.85952,8.85952,0,0,1,9.93091-9.09864l55.85449,6.83936h.00684a31.2906,31.2906,0,0,1,31.2063,31.27Z" transform="translate(-5.00977 -2)"/><path d="M292.50977,46.34422l-33,15,4.33258,16.311a253.73581,253.73581,0,0,1,6.53973,96.64988h0l24.12769,5.03912,20-51-7-58Z" transform="translate(-5.00977 -2)"/><path class="cls-1" d="M357.25977,121.84422c-21.68213,0-39.35157,15.762-40.209,35.5h80.418C396.61133,137.60618,378.94189,121.84422,357.25977,121.84422Z" transform="translate(-5.00977 -2)"/><path class="cls-1" d="M340.38135,125.24577c-1.12842-89.09839-51.87158-80.90155-51.87158-80.90155S289.459,72.07756,289.915,72.94c32.33545,61.17957-21.03027,132.90381-88.96,119.70887q-1.92114-.37317-3.69141-.75714A34.58131,34.58131,0,0,1,170.10034,153.129c6.69159-53.73563-26.59064-52.7847-26.59064-52.7847H94.84326L69.56992,77.59834a7.34688,7.34688,0,0,0-11.80869,2.921l-3.25146,8.825s-48,5-44,52H25.34961a29.96576,29.96576,0,0,0,.16016,4l110.75091-.90045c6.49188-.0528,12.22223,5.2077,12.249,11.69971a11.75307,11.75307,0,0,1-11.70355,11.80236q-.22046.00091-.44085-.00641l-17.85547-.59521c-5.5,24.5,8,41,22.875,51.375a83.14875,83.14875,0,0,0,47.61767,14.625h48.50733c63,0,74-53,74-53C344.50977,166.34422,340.38135,125.24577,340.38135,125.24577Z" transform="translate(-5.00977 -2)"/><circle class="cls-1" cx="349.25" cy="204.09425" r="56.25"/><circle class="cls-2" cx="349.25" cy="204.09425" r="13.78676"/><circle class="cls-1" cx="65.25" cy="195.59425" r="64.75"/><circle class="cls-2" cx="65.25" cy="195.59425" r="15.87009"/><path class="cls-1" d="M259.60352,65.77635,247.73,33.52684a13.63845,13.63845,0,0,1,8.08655-17.51062l.00036-.00013,34.04-12.53125a23.99765,23.99765,0,0,1,30.81189,14.22669l.00012.00036a23.84435,23.84435,0,0,1,1.481,8.29249,24.18859,24.18859,0,0,1-8.98779,18.73,23.81248,23.81248,0,0,1-6.72022,3.78906Z" transform="translate(-5.00977 -2)"/><path class="cls-3" d="M321.6499,26.00419a23.54943,23.54943,0,0,1-8.80029,18.34,29.98827,29.98827,0,0,1-19.69971-41.3,23.50508,23.50508,0,0,1,28.5,22.96Z" transform="translate(-5.00977 -2)"/><ellipse cx="14" cy="128.84423" rx="14" ry="17"/><circle cx="268" cy="33.84423" r="7"/></svg>